<svg width="23" height="24" viewBox="0 0 23 24" fill="none" xmlns="http://www.w3.org/2000/svg">
<path fill-rule="evenodd" clip-rule="evenodd" d="M12.0423 2.63673C11.4024 2.24609 10.5978 2.24609 9.95794 2.63673L3.84895 6.36637C2.5594 7.15366 2.57497 9.03164 3.8774 9.79744L10.0093 13.4029C10.6364 13.7716 11.4143 13.7708 12.0406 13.4006L18.1339 9.79957C19.4329 9.03186 19.4463 7.15704 18.1584 6.37077L12.0423 2.63673ZM18.6032 11.4714C19.0833 11.1985 19.6938 11.3666 19.9666 11.8467C20.22 12.2926 20.0932 12.8508 19.6894 13.1468L19.5913 13.2102L12.9967 16.9576C12.167 17.4334 11.1543 17.4662 10.2965 17.054L10.1151 16.9588L3.59833 13.2075C3.11968 12.9319 2.95503 12.3205 3.23056 11.8419C3.48641 11.3974 4.03184 11.2237 4.49169 11.4218L4.59612 11.4741L11.1095 15.2236C11.3498 15.3606 11.6429 15.3775 11.8983 15.2729L12.0053 15.2207L18.6032 11.4714ZM18.5062 15.1312C18.9864 14.8584 19.5968 15.0264 19.8697 15.5066C20.1231 15.9525 19.9963 16.5107 19.5924 16.8066L19.4943 16.8701L12.8998 20.6175C12.07 21.0933 11.0573 21.126 10.1995 20.7138L10.0182 20.6187L3.50137 16.8673C3.02273 16.5918 2.85807 15.9804 3.1336 15.5018C3.38945 15.0573 3.93489 14.8836 4.39473 15.0816L4.49916 15.134L11.0126 18.8834C11.2528 19.0205 11.5459 19.0373 11.8014 18.9328L11.9083 18.8806L18.5062 15.1312Z" fill="#7D8592"/>
</svg>
